<?xml version="1.0" encoding="UTF-8" standalone="no"?>
<svg
   xmlns:dc="http://purl.org/dc/elements/1.1/"
   xmlns:cc="http://creativecommons.org/ns#"
   xmlns:rdf="http://www.w3.org/1999/02/22-rdf-syntax-ns#"
   xmlns:svg="http://www.w3.org/2000/svg"
   xmlns="http://www.w3.org/2000/svg"
   xmlns:sodipodi="http://sodipodi.sourceforge.net/DTD/sodipodi-0.dtd"
   xmlns:inkscape="http://www.inkscape.org/namespaces/inkscape"
   width="148"
   height="25"
   version="1.1"
   id="svg12"
   sodipodi:docname="logo-bookmark-ft.svg"
   inkscape:version="0.92.3 (2405546, 2018-03-11)">
  <metadata
     id="metadata18">
    <rdf:RDF>
      <cc:Work
         rdf:about="">
        <dc:format>image/svg+xml</dc:format>
        <dc:type
           rdf:resource="http://purl.org/dc/dcmitype/StillImage" />
        <dc:title></dc:title>
      </cc:Work>
    </rdf:RDF>
  </metadata>
  <defs
     id="defs16" />
  <sodipodi:namedview
     pagecolor="#ffffff"
     bordercolor="#666666"
     borderopacity="1"
     objecttolerance="10"
     gridtolerance="10"
     guidetolerance="10"
     inkscape:pageopacity="0"
     inkscape:pageshadow="2"
     inkscape:window-width="1366"
     inkscape:window-height="713"
     id="namedview14"
     showgrid="false"
     inkscape:zoom="3.4054054"
     inkscape:cx="20.702381"
     inkscape:cy="12.5"
     inkscape:window-x="0"
     inkscape:window-y="27"
     inkscape:window-maximized="1"
     inkscape:current-layer="g10" />
  <g
     id="g10"
     style="fill:none;fill-rule:evenodd">
    <path
       d="m 37,6.299 h 5.227 c 0.746,0 1.434,0.155 2.062,0.466 0.629,0.311 1.123,0.735 1.484,1.27 0.361,0.535 0.542,1.12 0.542,1.754 0,0.672 -0.165,1.254 -0.495,1.746 -0.33,0.491 -0.762,0.868 -1.297,1.129 v 0.15 c 0.697,0.248 1.25,0.643 1.661,1.185 0.41,0.541 0.616,1.191 0.616,1.95 0,0.735 -0.196,1.385 -0.588,1.951 a 3.817,3.817 0 0 1 -1.587,1.307 c -0.665,0.305 -1.403,0.457 -2.212,0.457 H 37 Z m 5.04,5.45 c 0.548,0 0.986,-0.152 1.316,-0.457 0.33,-0.305 0.495,-0.688 0.495,-1.148 0,-0.448 -0.159,-0.824 -0.476,-1.13 C 43.057,8.71 42.637,8.557 42.115,8.557 H 39.52 v 3.192 z m 0.28,5.619 c 0.61,0 1.086,-0.159 1.428,-0.476 0.342,-0.317 0.513,-0.731 0.513,-1.241 0,-0.51 -0.174,-0.927 -0.522,-1.251 -0.349,-0.324 -0.847,-0.485 -1.494,-0.485 H 39.52 v 3.453 z m 12.927,2.595 c -1.307,0 -2.492,-0.308 -3.556,-0.924 a 6.711,6.711 0 0 1 -2.511,-2.53 c -0.61,-1.07 -0.915,-2.246 -0.915,-3.528 0,-1.281 0.305,-2.457 0.915,-3.528 A 6.711,6.711 0 0 1 51.69,6.924 C 52.756,6.308 53.94,6 55.248,6 c 1.306,0 2.492,0.308 3.556,0.924 a 6.711,6.711 0 0 1 2.51,2.53 c 0.61,1.07 0.915,2.246 0.915,3.527 0,1.282 -0.305,2.458 -0.915,3.528 a 6.711,6.711 0 0 1 -2.51,2.53 c -1.064,0.616 -2.25,0.924 -3.556,0.924 z m 0,-2.39 a 4.52,4.52 0 0 0 2.258,-0.578 4.177,4.177 0 0 0 1.615,-1.624 c 0.392,-0.697 0.588,-1.494 0.588,-2.39 0,-0.896 -0.196,-1.692 -0.588,-2.389 a 4.177,4.177 0 0 0 -1.615,-1.624 4.52,4.52 0 0 0 -2.258,-0.579 4.47,4.47 0 0 0 -2.25,0.579 4.195,4.195 0 0 0 -1.605,1.624 c -0.392,0.697 -0.588,1.493 -0.588,2.39 0,0.895 0.196,1.692 0.588,2.389 a 4.195,4.195 0 0 0 1.605,1.624 4.47,4.47 0 0 0 2.25,0.578 z m 15.353,2.39 c -1.307,0 -2.492,-0.308 -3.556,-0.924 a 6.711,6.711 0 0 1 -2.51,-2.53 c -0.61,-1.07 -0.915,-2.246 -0.915,-3.528 0,-1.281 0.305,-2.457 0.914,-3.528 A 6.711,6.711 0 0 1 67.044,6.924 C 68.108,6.308 69.294,6 70.6,6 c 1.307,0 2.492,0.308 3.556,0.924 a 6.711,6.711 0 0 1 2.51,2.53 c 0.61,1.07 0.915,2.246 0.915,3.527 0,1.282 -0.305,2.458 -0.914,3.528 a 6.711,6.711 0 0 1 -2.511,2.53 c -1.064,0.616 -2.25,0.924 -3.556,0.924 z m 0,-2.39 a 4.52,4.52 0 0 0 2.259,-0.578 4.177,4.177 0 0 0 1.614,-1.624 c 0.392,-0.697 0.588,-1.494 0.588,-2.39 0,-0.896 -0.196,-1.692 -0.588,-2.389 A 4.177,4.177 0 0 0 72.859,8.968 4.52,4.52 0 0 0 70.6,8.389 4.47,4.47 0 0 0 68.35,8.968 4.195,4.195 0 0 0 66.745,10.592 c -0.392,0.697 -0.588,1.493 -0.588,2.39 0,0.895 0.196,1.692 0.588,2.389 a 4.195,4.195 0 0 0 1.606,1.624 4.47,4.47 0 0 0 2.249,0.578 z M 79.83,6.3 h 2.52 v 5.73 H 82.5 L 87.39,6.3 h 3.043 v 0.149 l -4.833,5.524 5.338,7.542 v 0.149 h -3.08 l -3.994,-5.693 -1.512,1.773 v 3.92 h -2.52 V 6.299 Z M 93.779,6 h 3.248 l 3.546,9.39 h 0.15 L 104.268,6 h 3.267 v 13.365 h -2.501 v -6.589 l 0.15,-2.221 h -0.15 l -3.398,8.81 h -1.96 l -3.416,-8.81 h -0.149 l 0.15,2.221 v 6.59 H 93.778 V 6 Z m 20.8,0 h 2.894 l 5.021,13.365 h -2.781 l -1.12,-3.192 h -5.115 l -1.12,3.192 h -2.781 z m 3.193,7.859 -1.176,-3.36 -0.486,-1.606 h -0.149 l -0.485,1.606 -1.195,3.36 h 3.49 z M 124.553,6 h 4.872 c 0.871,0 1.646,0.18 2.324,0.541 0.678,0.361 1.204,0.862 1.577,1.503 0.374,0.64 0.56,1.366 0.56,2.175 0,0.858 -0.27,1.62 -0.812,2.286 a 4.617,4.617 0 0 1 -2.044,1.447 l -0.018,0.13 3.584,5.134 v 0.15 h -2.894 l -3.453,-5.022 h -1.176 v 5.021 h -2.52 z m 4.853,6.03 c 0.573,0 1.04,-0.175 1.4,-0.523 0.361,-0.349 0.542,-0.79 0.542,-1.326 0,-0.51 -0.172,-0.945 -0.514,-1.306 -0.342,-0.361 -0.806,-0.542 -1.39,-0.542 h -2.371 v 3.696 h 2.333 z M 136.636,6 h 2.52 v 5.73 h 0.15 L 144.196,6 h 3.043 v 0.15 l -4.835,5.525 5.34,7.541 v 0.15 h -3.08 l -3.996,-5.694 -1.512,1.773 v 3.92 h -2.52 z"
       id="path2"
       inkscape:connector-curvature="0"
       style="fill:#ffffff;fill-rule:nonzero" />
    <g
       id="g8">
      <circle
         cx="12.5"
         cy="12.5"
         r="12.5"
         id="circle4"
         style="fill:#5267df" />
      <path
         d="M 9,9 V 19 L 12.54,15.56 16.078,19 V 9 a 2,2 0 0 0 -2,-2 H 11 A 2,2 0 0 0 9,9 Z"
         id="path6"
         inkscape:connector-curvature="0"
         style="fill:#ffffff" />
    </g>
  </g>
</svg>
