<?xml version="1.0" encoding="UTF-8" standalone="no"?>
<svg
   xmlns:dc="http://purl.org/dc/elements/1.1/"
   xmlns:cc="http://creativecommons.org/ns#"
   xmlns:rdf="http://www.w3.org/1999/02/22-rdf-syntax-ns#"
   xmlns:svg="http://www.w3.org/2000/svg"
   xmlns="http://www.w3.org/2000/svg"
   xmlns:sodipodi="http://sodipodi.sourceforge.net/DTD/sodipodi-0.dtd"
   xmlns:inkscape="http://www.inkscape.org/namespaces/inkscape"
   width="139"
   height="20"
   version="1.1"
   id="svg21"
   sodipodi:docname="logo-ft.svg"
   inkscape:version="0.92.3 (2405546, 2018-03-11)">
  <metadata
     id="metadata25">
    <rdf:RDF>
      <cc:Work
         rdf:about="">
        <dc:format>image/svg+xml</dc:format>
        <dc:type
           rdf:resource="http://purl.org/dc/dcmitype/StillImage" />
        <dc:title></dc:title>
      </cc:Work>
    </rdf:RDF>
  </metadata>
  <sodipodi:namedview
     pagecolor="#ffffff"
     bordercolor="#666666"
     borderopacity="1"
     objecttolerance="10"
     gridtolerance="10"
     guidetolerance="10"
     inkscape:pageopacity="0"
     inkscape:pageshadow="2"
     inkscape:window-width="1366"
     inkscape:window-height="713"
     id="namedview23"
     showgrid="false"
     inkscape:zoom="3.6258993"
     inkscape:cx="69.5"
     inkscape:cy="-1.031746"
     inkscape:window-x="0"
     inkscape:window-y="27"
     inkscape:window-maximized="1"
     inkscape:current-layer="g19" />
  <defs
     id="defs7">
    <linearGradient
       id="a"
       x1="72.195%"
       x2="17.503%"
       y1="0%"
       y2="100%">
      <stop
         offset="0%"
         stop-color="#33D35E"
         id="stop2" />
      <stop
         offset="100%"
         stop-color="#2AB6D9"
         id="stop4" />
    </linearGradient>
  </defs>
  <g
     id="g19"
     style="fill:none;fill-rule:evenodd">
    <path
       d="m 37.754,15.847 c 2.852,0 5.152,-1.622 5.952,-4.216 h -3.897 c -0.376,0.665 -1.14,1.066 -2.055,1.066 -1.237,0 -2.065,-0.674 -2.32,-1.978 h 8.44 c 0.051,-0.352 0.081,-0.694 0.081,-1.037 0,-3.335 -2.537,-5.95 -6.201,-5.95 -3.568,0 -6.175,2.564 -6.175,6.049 0,3.473 2.628,6.066 6.175,6.066 z M 40.098,8.55 h -4.596 c 0.317,-1.129 1.11,-1.749 2.252,-1.749 1.181,0 2,0.613 2.344,1.75 z m 10.946,7.296 c 1.32,0 2.5,-0.434 3.43,-1.188 l 0.336,0.804 h 3.027 V 4.093 h -2.919 l -0.4,0.88 c -0.94,-0.775 -2.135,-1.222 -3.474,-1.222 -3.476,0 -5.961,2.505 -5.961,6.026 0,3.533 2.485,6.07 5.961,6.07 z m 0.524,-3.467 c -1.467,0 -2.545,-1.108 -2.545,-2.593 0,-1.475 1.069,-2.583 2.545,-2.583 1.466,0 2.544,1.108 2.544,2.583 0,1.485 -1.078,2.593 -2.544,2.593 z m 13.123,3.467 c 3.02,0 5.025,-1.554 5.025,-3.93 0,-2.883 -2.387,-3.256 -4.183,-3.575 -1.08,-0.193 -1.95,-0.344 -1.95,-0.99 0,-0.527 0.422,-0.838 1.05,-0.838 0.71,0 1.197,0.337 1.197,1.063 h 3.667 c -0.044,-2.303 -1.92,-3.843 -4.816,-3.843 -2.912,0 -4.854,1.47 -4.854,3.75 0,2.757 2.337,3.289 4.1,3.574 1.092,0.181 1.952,0.368 1.952,1.024 0,0.587 -0.543,0.88 -1.116,0.88 -0.742,0 -1.32,-0.383 -1.32,-1.214 h -3.77 c 0.036,2.463 1.919,4.1 5.018,4.1 z m 8.1,3.858 c 2.936,0 4.344,-1.257 5.877,-4.736 L 83.432,4.105 H 79.226 L 76.977,10.368 74.565,4.105 H 70.31 l 4.698,10.43 c -0.53,1.414 -0.983,1.804 -2.48,1.804 H 71.45 v 3.365 z m 18.504,-3.858 c 3.5,0 5.973,-2.515 5.973,-6.048 0,-3.533 -2.472,-6.048 -5.973,-6.048 A 5.332,5.332 0 0 0 88.47,4.534 V 0 H 84.6 v 15.474 h 2.897 l 0.37,-0.844 c 0.923,0.771 2.102,1.216 3.428,1.216 z m -0.523,-3.467 c -1.467,0 -2.545,-1.108 -2.545,-2.58 0,-1.486 1.078,-2.594 2.545,-2.594 1.466,0 2.544,1.108 2.544,2.593 0,1.473 -1.087,2.58 -2.544,2.58 z m 13.598,3.467 c 1.32,0 2.5,-0.434 3.43,-1.188 l 0.336,0.804 h 3.027 V 4.093 h -2.918 l -0.401,0.88 c -0.939,-0.775 -2.135,-1.222 -3.474,-1.222 -3.476,0 -5.96,2.505 -5.96,6.026 0,3.533 2.484,6.07 5.96,6.07 z m 0.524,-3.467 c -1.467,0 -2.545,-1.108 -2.545,-2.593 0,-1.475 1.07,-2.583 2.545,-2.583 1.467,0 2.545,1.108 2.545,2.583 0,1.485 -1.078,2.593 -2.545,2.593 z m 12.653,3.095 V 9.403 c 0,-1.447 0.702,-2.3 1.923,-2.3 0.986,0 1.483,0.657 1.483,1.98 v 6.39 h 3.915 v -6.93 c 0,-2.897 -1.733,-4.773 -4.373,-4.773 -1.47,0 -2.733,0.565 -3.58,1.508 l -0.537,-1.172 h -2.747 v 11.369 h 3.916 z m 13.748,0 v -4.808 l 2.848,4.808 h 4.616 l -3.902,-5.95 3.543,-5.419 h -4.397 l -2.708,4.454 V 0 h -3.916 v 15.474 z"
       id="path9"
       inkscape:connector-curvature="0"
       style="fill:#ffffff;fill-rule:nonzero" />
    <g
       id="g17"
       style="fill:url(#a)">
      <path
         d="M 10.802,0 0,19.704 H 5.986 L 16.789,0 Z"
         id="path11"
         inkscape:connector-curvature="0" />
      <path
         d="M 18.171,0 7.368,19.704 h 5.986 L 24.157,0 Z"
         id="path13"
         inkscape:connector-curvature="0"
         style="opacity:0.5" />
      <path
         d="M 25.539,0 14.737,19.704 h 5.986 L 31.525,0 Z"
         id="path15"
         inkscape:connector-curvature="0"
         style="opacity:0.15" />
    </g>
  </g>
</svg>
