<svg xmlns="http://www.w3.org/2000/svg" xmlns:xlink="http://www.w3.org/1999/xlink" width="1440" height="420"><defs><linearGradient id="b" x1="38.397%" x2="65.758%" y1="41.964%" y2="63.803%"><stop offset="0%" stop-color="#1E2D69"/><stop offset="99.913%" stop-color="#0C122C" stop-opacity="0"/></linearGradient><linearGradient id="d" x1="38.397%" x2="65.758%" y1="41.96%" y2="63.811%"><stop offset="0%" stop-color="#1E2D69"/><stop offset="99.913%" stop-color="#0C122C" stop-opacity="0"/></linearGradient><path id="a" d="M210 0h1230v420H0V210C0 94.02 94.02 0 210 0z"/></defs><g fill="none" fill-rule="evenodd"><mask id="c" fill="#fff"><use xlink:href="#a"/></mask><use fill="#0F1B3D" xlink:href="#a"/><path fill="url(#b)" fill-opacity=".75" d="M93.042 658.028C59.76 478.633 157.419 319.991 550.665 286.636c393.247-33.356 413.417-249.545 629.08-443.874 215.663-194.33 609.319-330.912 719.655 32.001 110.337 362.913 67.457 599.428-291.158 898.039-358.616 298.61-736.114 236.909-892.112 213.958-155.997-22.95-589.807-149.337-623.088-328.732z" mask="url(#c)" transform="matrix(-1 0 0 1 2040 0)"/><path fill="url(#d)" fill-opacity=".75" d="M-81.643 617.549c-24-129.4 46.423-243.831 330-267.891 283.576-24.06 298.12-180 453.64-320.173 155.518-140.173 439.389-238.692 518.955 23.083 79.565 261.775 48.644 432.376-209.96 647.769C752.39 915.73 480.17 871.223 367.676 854.669c-112.492-16.555-425.32-107.72-449.32-237.12z" mask="url(#c)" transform="matrix(-1 0 0 1 1173.603 0)"/><path fill="url(#d)" fill-opacity=".75" d="M-109.643 891.549c-24-129.4 46.423-243.831 330-267.891 283.576-24.06 298.12-180 453.64-320.173 155.518-140.173 439.389-238.692 518.955 23.083 79.565 261.775 48.644 432.376-209.96 647.769-258.603 215.393-530.823 170.886-643.316 154.332-112.492-16.555-425.32-107.72-449.32-237.12z" mask="url(#c)" opacity=".401" transform="matrix(-1 0 0 1 1117.603 0)"/></g></svg>