<?xml version="1.0" encoding="UTF-8" standalone="no"?>
<svg
   xmlns:dc="http://purl.org/dc/elements/1.1/"
   xmlns:cc="http://creativecommons.org/ns#"
   xmlns:rdf="http://www.w3.org/1999/02/22-rdf-syntax-ns#"
   xmlns:svg="http://www.w3.org/2000/svg"
   xmlns="http://www.w3.org/2000/svg"
   xmlns:sodipodi="http://sodipodi.sourceforge.net/DTD/sodipodi-0.dtd"
   xmlns:inkscape="http://www.inkscape.org/namespaces/inkscape"
   width="146"
   height="24"
   version="1.1"
   id="svg12"
   sodipodi:docname="logo-ft.svg"
   inkscape:version="0.92.3 (2405546, 2018-03-11)">
  <metadata
     id="metadata18">
    <rdf:RDF>
      <cc:Work
         rdf:about="">
        <dc:format>image/svg+xml</dc:format>
        <dc:type
           rdf:resource="http://purl.org/dc/dcmitype/StillImage" />
        <dc:title></dc:title>
      </cc:Work>
    </rdf:RDF>
  </metadata>
  <defs
     id="defs16" />
  <sodipodi:namedview
     pagecolor="#ffffff"
     bordercolor="#666666"
     borderopacity="1"
     objecttolerance="10"
     gridtolerance="10"
     guidetolerance="10"
     inkscape:pageopacity="0"
     inkscape:pageshadow="2"
     inkscape:window-width="1366"
     inkscape:window-height="713"
     id="namedview14"
     showgrid="false"
     inkscape:zoom="3.4520548"
     inkscape:cx="73"
     inkscape:cy="12"
     inkscape:window-x="0"
     inkscape:window-y="27"
     inkscape:window-maximized="1"
     inkscape:current-layer="g10" />
  <g
     id="g10"
     style="fill:none;fill-rule:evenodd">
    <path
       d="M 40.014,16.809 V 8.553 c 0,-1.577 0.366,-2.82 1.098,-3.73 0.733,-0.91 1.65,-1.365 2.75,-1.365 2.158,0 3.237,1.577 3.237,4.731 v 8.62 h 3.782 v -9.58 c 0,-2.415 -0.5,-4.22 -1.503,-5.417 -1.002,-1.197 -2.433,-1.795 -4.294,-1.795 -1.222,0 -2.34,0.234 -3.352,0.703 a 6.833,6.833 0 0 0 -2.56,2.043 h -0.066 c -0.98,-1.831 -2.62,-2.746 -4.922,-2.746 -0.969,0 -1.902,0.217 -2.799,0.653 a 6.976,6.976 0 0 0 -2.353,1.878 h -0.05 V 0.265 H 25.2 v 16.527 h 3.782 V 8.553 c 0,-1.577 0.372,-2.82 1.115,-3.73 0.743,-0.91 1.693,-1.365 2.849,-1.365 2.19,0 3.286,1.577 3.286,4.731 v 8.62 z m 21.101,0.248 c 2.246,0 3.997,-0.827 5.252,-2.482 h 0.05 v 2.217 h 3.616 V 0.265 H 66.251 V 2.25 H 66.185 C 64.93,0.761 63.23,0.017 61.082,0.017 a 7.76,7.76 0 0 0 -5.681,2.415 c -0.705,0.75 -1.26,1.66 -1.668,2.73 a 9.589,9.589 0 0 0 -0.611,3.44 c 0,1.258 0.203,2.416 0.61,3.475 0.408,1.059 0.964,1.952 1.669,2.68 a 7.348,7.348 0 0 0 2.535,1.696 8.325,8.325 0 0 0 3.18,0.604 z m 0.595,-3.441 c -1.399,0 -2.538,-0.466 -3.419,-1.398 -0.88,-0.932 -1.321,-2.132 -1.321,-3.599 0,-1.555 0.454,-2.804 1.362,-3.747 0.909,-0.943 2.04,-1.414 3.394,-1.414 1.343,0 2.458,0.493 3.345,1.48 0.886,0.988 1.33,2.215 1.33,3.681 0,1.467 -0.455,2.667 -1.363,3.599 -0.909,0.932 -2.018,1.398 -3.328,1.398 z m 27.112,3.193 V 7.064 c 0,-2.393 -0.536,-4.166 -1.61,-5.319 C 86.14,0.593 84.655,0.017 82.762,0.017 a 7.373,7.373 0 0 0 -3.056,0.645 6.958,6.958 0 0 0 -2.477,1.87 h -0.05 V 0.264 h -3.782 v 16.527 h 3.782 V 8.487 c 0,-1.588 0.388,-2.823 1.164,-3.706 0.777,-0.882 1.814,-1.323 3.113,-1.323 0.595,0 1.104,0.077 1.528,0.231 0.424,0.155 0.796,0.406 1.115,0.753 0.32,0.348 0.556,0.819 0.71,1.415 0.154,0.595 0.231,1.323 0.231,2.183 v 8.769 z m 10.218,0.248 c 2.246,0 3.996,-0.827 5.252,-2.482 h 0.05 v 2.217 h 3.616 V 0.265 h -3.782 V 2.25 H 104.11 C 102.855,0.761 101.154,0.017 99.007,0.017 a 7.76,7.76 0 0 0 -5.682,2.415 c -0.704,0.75 -1.26,1.66 -1.668,2.73 a 9.589,9.589 0 0 0 -0.61,3.44 c 0,1.258 0.203,2.416 0.61,3.475 0.408,1.059 0.964,1.952 1.668,2.68 a 7.348,7.348 0 0 0 2.536,1.696 8.325,8.325 0 0 0 3.179,0.604 z m 0.594,-3.441 c -1.398,0 -2.538,-0.466 -3.418,-1.398 -0.881,-0.932 -1.322,-2.132 -1.322,-3.599 0,-1.555 0.455,-2.804 1.363,-3.747 0.908,-0.943 2.04,-1.414 3.394,-1.414 1.343,0 2.458,0.493 3.344,1.48 0.886,0.988 1.33,2.215 1.33,3.681 0,1.467 -0.455,2.667 -1.363,3.599 -0.908,0.932 -2.018,1.398 -3.328,1.398 z m 19.07,10.125 c 1.2,0 2.274,-0.14 3.22,-0.422 0.947,-0.281 1.743,-0.673 2.387,-1.175 a 6.385,6.385 0 0 0 1.602,-1.844 8.14,8.14 0 0 0 0.916,-2.383 c 0.188,-0.86 0.281,-1.803 0.281,-2.829 V 0.265 h -3.782 v 1.737 h -0.066 A 7.059,7.059 0 0 0 120.909,0.512 7.62,7.62 0 0 0 118.142,0 c -1.508,0 -2.862,0.358 -4.062,1.075 -1.2,0.717 -2.134,1.713 -2.8,2.987 -0.666,1.273 -0.999,2.705 -0.999,4.293 0,1.61 0.35,3.038 1.049,4.285 0.699,1.246 1.66,2.203 2.882,2.87 1.222,0.667 2.598,1.001 4.129,1.001 2.047,0 3.716,-0.673 5.004,-2.018 h 0.066 v 1.753 c 0,1.17 -0.43,2.14 -1.288,2.912 -0.86,0.772 -2.07,1.158 -3.634,1.158 -1.068,0 -2.006,-0.132 -2.816,-0.397 -0.809,-0.265 -1.742,-0.678 -2.799,-1.24 l -0.892,3.341 c 0.925,0.552 1.966,0.976 3.122,1.274 1.156,0.298 2.356,0.447 3.6,0.447 z m 0.132,-10.72 c -1.365,0 -2.491,-0.434 -3.377,-1.3 -0.887,-0.865 -1.33,-2.026 -1.33,-3.482 0,-1.4 0.435,-2.542 1.305,-3.425 0.87,-0.882 2.004,-1.323 3.402,-1.323 1.332,0 2.442,0.435 3.328,1.307 0.886,0.871 1.33,2.002 1.33,3.391 0,1.401 -0.433,2.556 -1.297,3.466 -0.864,0.91 -1.985,1.365 -3.361,1.365 z m 19.086,4.036 c 1.542,0 2.899,-0.281 4.071,-0.844 1.173,-0.562 2.133,-1.323 2.882,-2.283 l -2.642,-2.266 c -1.035,1.301 -2.406,1.952 -4.113,1.952 -1.21,0 -2.237,-0.337 -3.08,-1.01 -0.842,-0.672 -1.384,-1.593 -1.627,-2.762 h 12.024 c 0.066,-0.397 0.099,-0.9 0.099,-1.506 0,-1.599 -0.325,-3.027 -0.975,-4.285 a 7.198,7.198 0 0 0 -2.807,-2.961 c -1.222,-0.717 -2.632,-1.075 -4.228,-1.075 a 8.191,8.191 0 0 0 -3.188,0.62 c -0.99,0.414 -1.844,0.99 -2.56,1.729 -0.715,0.739 -1.277,1.638 -1.684,2.696 -0.407,1.06 -0.611,2.212 -0.611,3.458 0,1.688 0.369,3.185 1.106,4.492 0.738,1.307 1.746,2.308 3.023,3.003 1.277,0.695 2.714,1.042 4.31,1.042 z m 3.815,-10.274 h -8.257 c 0.264,-1.059 0.776,-1.878 1.535,-2.457 0.76,-0.579 1.663,-0.868 2.709,-0.868 1.057,0 1.93,0.298 2.618,0.893 0.688,0.596 1.153,1.406 1.395,2.432 z"
       id="path2"
       inkscape:connector-curvature="0"
       style="fill:#ffffff;fill-rule:nonzero" />
    <g
       id="g8"
       style="fill:#f3603c">
      <path
         d="m 2.786,10.286 c 1.538,0 2.785,1.279 2.785,2.857 C 5.571,14.72 4.324,16 2.786,16 1.247,16 0,14.72 0,13.143 0,11.565 1.247,10.286 2.786,10.286 Z M 2.786,0 C 4.324,0 5.57,1.28 5.57,2.857 5.57,4.435 4.323,5.714 2.785,5.714 1.247,5.714 0,4.435 0,2.857 0,1.28 1.247,0 2.786,0 Z m 10.028,0 c 1.539,0 2.786,1.28 2.786,2.857 0,1.578 -1.247,2.857 -2.786,2.857 -1.538,0 -2.785,-1.279 -2.785,-2.857 C 10.029,1.28 11.276,0 12.814,0 Z"
         id="path4"
         inkscape:connector-curvature="0" />
      <ellipse
         cx="12.814"
         cy="13.257"
         rx="2.786"
         ry="2.8570001"
         id="ellipse6"
         style="opacity:0.5" />
    </g>
  </g>
</svg>
